<svg xmlns="http://www.w3.org/2000/svg" xml:space="preserve" width="1500" height="1500" data-id="lg_UrPiaZYqamwhU7vybj" data-version="1" viewBox="0 0 1500 1500"><path stroke="transparent" d="M0 0h1500v1500H0z"/><g data-padding="20"><g transform="translate(-638.368 -638.368)scale(1.80577)"><rect width="448.284" height="448.284" x="85.715" y="85.715" fill="none" stroke="#fff" stroke-width="22.5" paint-order="stroke" rx="0" ry="0" transform="translate(400.12 400.12)scale(1.19)"/><rect width="228.572" height="379.68" x="254.444" y="178.89" fill="none" rx="0" ry="0" transform="translate(400.51 400.14)"/><path fill="#fff" stroke="#fff" stroke-width="7.32" d="M728.04 877.58h-48.72v-235.2h114.92q23.85 0 42.16 9.24 18.32 9.24 28.73 25.71 10.42 16.46 10.42 37.96 0 22.52-12.6 39.65-12.6 17.14-33.43 25.54l52.08 97.1h-54.44l-46.03-90.05h-53.09Zm0-193.2v63.17h61.83q16.46 0 26.37-8.74 9.92-8.73 9.92-22.84 0-14.12-9.92-22.85-9.91-8.74-26.37-8.74Z"/></g><path fill="transparent" stroke="transparent" stroke-width="1.876" d="M250 250h1000v1000H250z"/></g></svg>